#define skuska_width 8
#define skuska_height 8
static char skuska_bits[] = {
  0x18, 0x5A, 0x3C, 0xE7, 0xE7, 0x3C, 0x5A, 0x18, };
