#define Untitled-10-64_width 64
#define Untitled-10-64_height 64
static char Untitled-10-64_bits[] = {
  0x00, 0x00, 0x00, 0x00, 0x00, 0x00, 0x00, 0x00, 0x00, 0x00, 0x00, 0x00, 
  0x00, 0x00, 0x00, 0x00, 0x00, 0x00, 0x00, 0x00, 0x00, 0x00, 0x00, 0x00, 
  0x00, 0x00, 0x00, 0x00, 0x00, 0x00, 0x00, 0x00, 0x00, 0x00, 0x00, 0x00, 
  0x00, 0x00, 0x00, 0x00, 0x00, 0x00, 0x00, 0x00, 0x00, 0x00, 0x00, 0x00, 
  0x00, 0x00, 0x00, 0x00, 0x00, 0x00, 0x00, 0x00, 0x00, 0x00, 0x00, 0x00, 
  0x00, 0x00, 0x00, 0x00, 0x00, 0x00, 0x00, 0x00, 0x00, 0x00, 0x00, 0x00, 
  0x00, 0x00, 0x00, 0x00, 0x00, 0x00, 0x00, 0x00, 0x00, 0x00, 0x00, 0x00, 
  0x00, 0x00, 0x00, 0x00, 0x00, 0x00, 0x00, 0x00, 0x00, 0x00, 0x00, 0x00, 
  0x00, 0x00, 0x00, 0x00, 0x00, 0x00, 0x00, 0x00, 0x00, 0x00, 0xD6, 0x7B, 
  0xBB, 0xEE, 0x7B, 0x1D, 0x00, 0x00, 0xFF, 0xFF, 0xFF, 0xFF, 0xFF, 0xFF, 
  0x00, 0x80, 0xFF, 0xFF, 0xFF, 0xFF, 0xFF, 0xFF, 0x00, 0x80, 0x03, 0x00, 
  0x00, 0x00, 0x00, 0xC0, 0x00, 0x80, 0x03, 0x00, 0x00, 0x00, 0x00, 0xE0, 
  0x00, 0x80, 0x03, 0x00, 0x00, 0x00, 0x00, 0xE0, 0x00, 0x80, 0x03, 0x00, 
  0x80, 0x00, 0x00, 0xE0, 0x00, 0x80, 0x03, 0x00, 0x00, 0x00, 0x00, 0xC0, 
  0x00, 0x80, 0x03, 0x00, 0x00, 0x00, 0x00, 0xE0, 0x00, 0x80, 0x03, 0x00, 
  0x00, 0x00, 0x00, 0xE0, 0x00, 0x80, 0x03, 0x00, 0x00, 0x00, 0x00, 0xE0, 
  0x00, 0x80, 0x03, 0x00, 0x00, 0x00, 0x00, 0xC0, 0x00, 0x80, 0x03, 0x00, 
  0x00, 0x00, 0x00, 0xE0, 0x00, 0x00, 0x00, 0x00, 0x00, 0x00, 0x00, 0xE0, 
  0xF0, 0xFF, 0xFF, 0xFF, 0x0F, 0x00, 0x00, 0xE0, 0xF0, 0xFF, 0xFF, 0xFF, 
  0x0F, 0x00, 0x00, 0xC0, 0x38, 0x00, 0x00, 0x00, 0x0C, 0x00, 0x00, 0xE0, 
  0x30, 0x00, 0x00, 0x00, 0x0C, 0x00, 0x00, 0xE0, 0x30, 0x00, 0x00, 0x00, 
  0x0C, 0x80, 0x00, 0xE0, 0x30, 0x00, 0x00, 0x00, 0x0C, 0x00, 0x00, 0xC0, 
  0x30, 0x00, 0x00, 0x00, 0x0C, 0x00, 0x00, 0xE0, 0x38, 0x00, 0x00, 0x00, 
  0x0C, 0x40, 0x00, 0xE0, 0x10, 0x00, 0x80, 0x00, 0x0C, 0x00, 0x00, 0xE0, 
  0x30, 0x00, 0x00, 0x00, 0x0C, 0x00, 0x00, 0xC0, 0x18, 0x00, 0x00, 0x00, 
  0x0C, 0x00, 0x00, 0xE0, 0x30, 0x00, 0x00, 0x00, 0x0C, 0x00, 0x00, 0xE0, 
  0x30, 0x00, 0x00, 0x00, 0x0C, 0x00, 0x00, 0xE0, 0x30, 0x00, 0x00, 0x00, 
  0x4C, 0x00, 0x00, 0xE0, 0x30, 0x00, 0x00, 0x00, 0xEC, 0xFF, 0xFF, 0xFF, 
  0x18, 0x00, 0x00, 0x00, 0xEC, 0xFF, 0xFF, 0x7F, 0x30, 0x00, 0x00, 0x00, 
  0xEC, 0x2F, 0xA2, 0x25, 0x30, 0x00, 0x00, 0x00, 0xEC, 0x07, 0x00, 0x00, 
  0x30, 0x00, 0x00, 0x00, 0xEC, 0x07, 0x00, 0x00, 0xB8, 0x59, 0xA6, 0x65, 
  0xEE, 0x3F, 0x00, 0x00, 0xF0, 0xFF, 0xFF, 0xFF, 0x6F, 0xFF, 0x00, 0x00, 
  0xFF, 0xFF, 0xCB, 0xFF, 0xFF, 0xFF, 0x01, 0x00, 0xFF, 0xFF, 0xFF, 0xFF, 
  0xFF, 0xFE, 0x00, 0x00, 0xD8, 0xEF, 0xB9, 0xDE, 0x27, 0x0E, 0x00, 0x00, 
  0x00, 0x00, 0x00, 0x00, 0x00, 0x40, 0x00, 0x00, 0x00, 0x00, 0x00, 0x00, 
  0x00, 0x00, 0x00, 0x00, 0x00, 0x00, 0x00, 0x00, 0x00, 0x00, 0x00, 0x00, 
  0x00, 0x00, 0x00, 0x00, 0x00, 0x00, 0x00, 0x00, 0x00, 0x00, 0x00, 0x00, 
  0x00, 0x00, 0x00, 0x00, 0x00, 0x00, 0x00, 0x00, 0x00, 0x00, 0x00, 0x00, 
  0x00, 0x00, 0x00, 0x00, 0x00, 0x00, 0x00, 0x00, 0x00, 0x00, 0x00, 0x00, 
  0x00, 0x00, 0x00, 0x00, 0x00, 0x00, 0x00, 0x00, 0x00, 0x00, 0x00, 0x00, 
  0x00, 0x00, 0x00, 0x00, 0x00, 0x00, 0x00, 0x00, 0x00, 0x00, 0x00, 0x00, 
  0x00, 0x00, 0x00, 0x00, 0x00, 0x00, 0x00, 0x00, 0x00, 0x00, 0x00, 0x00, 
  0x00, 0x00, 0x00, 0x00, 0x00, 0x00, 0x00, 0x00, };
