#define mic_width 16
#define mic_height 16
static char mic_bits[] = {
  0x00, 0x1C, 0x00, 0x3C, 0x00, 0x7D, 0x00, 0x7A, 0x00, 0x76, 0x80, 0x0D, 
  0xC0, 0x19, 0xC0, 0x03, 0xE0, 0x01, 0xF0, 0x00, 0x78, 0x00, 0x3C, 0x02, 
  0x8C, 0x07, 0x66, 0x18, 0x32, 0x20, 0x0E, 0x40, };
