#define Monitor-Laptop-icon_width 64
#define Monitor-Laptop-icon_height 64
static char Monitor-Laptop-icon_bits[] = {
  0x00, 0x00, 0x00, 0x00, 0x00, 0x00, 0x00, 0x00, 0x00, 0x00, 0x00, 0x00, 
  0x00, 0x00, 0x00, 0x00, 0x00, 0x00, 0x00, 0x00, 0x00, 0x00, 0x00, 0x00, 
  0x00, 0x00, 0x00, 0x00, 0x00, 0x00, 0x00, 0x00, 0x00, 0x00, 0x00, 0x00, 
  0x00, 0x00, 0x00, 0x00, 0x00, 0x00, 0x00, 0x00, 0x00, 0x00, 0x00, 0x00, 
  0x00, 0x00, 0x00, 0x00, 0x00, 0x00, 0x00, 0x00, 0x00, 0x00, 0x00, 0x00, 
  0x00, 0x00, 0x00, 0x00, 0x00, 0x00, 0x00, 0x00, 0x00, 0x00, 0x00, 0x00, 
  0x00, 0x00, 0x00, 0x00, 0x00, 0x00, 0x00, 0x00, 0x00, 0x00, 0x00, 0x00, 
  0x00, 0x00, 0x00, 0x00, 0x00, 0x00, 0x00, 0x00, 0x00, 0x00, 0x00, 0x00, 
  0x50, 0xAA, 0xA5, 0x5A, 0x66, 0x00, 0x00, 0x00, 0xFE, 0xFF, 0xFF, 0xFF, 
  0xFF, 0x07, 0x00, 0x00, 0x9F, 0xE7, 0x79, 0x5E, 0xBB, 0x0F, 0x00, 0x00, 
  0x03, 0x00, 0x00, 0x00, 0x00, 0x0C, 0x00, 0x00, 0x7F, 0xDF, 0xBF, 0xDF, 
  0xEE, 0x0F, 0x00, 0x00, 0xFF, 0xFF, 0xFF, 0xFF, 0xFF, 0x0F, 0x00, 0x00, 
  0x87, 0x22, 0x88, 0xA4, 0xAA, 0x0E, 0x00, 0x00, 0x03, 0x00, 0x00, 0x00, 
  0x00, 0x0C, 0x00, 0x00, 0x03, 0x00, 0x00, 0xFE, 0xFF, 0xFF, 0xFF, 0x03, 
  0x03, 0x00, 0x00, 0xFF, 0xFF, 0xFF, 0xFF, 0x0F, 0x03, 0x00, 0x00, 0x03, 
  0x00, 0x00, 0x00, 0x0E, 0x03, 0x00, 0x00, 0x23, 0x94, 0x48, 0x92, 0x0C, 
  0x03, 0x00, 0x00, 0xFB, 0xFF, 0xFF, 0xFF, 0x0D, 0x03, 0x00, 0x00, 0xF3, 
  0xBB, 0xAE, 0xFD, 0x0D, 0x03, 0x00, 0x80, 0x19, 0x00, 0x00, 0x80, 0x0D, 
  0x03, 0x00, 0x00, 0x1B, 0x00, 0x00, 0xC0, 0x08, 0x03, 0x00, 0x00, 0x1B, 
  0x00, 0x00, 0x80, 0x1D, 0x03, 0x00, 0x80, 0x1B, 0x00, 0x00, 0x80, 0x09, 
  0x03, 0x00, 0x00, 0x13, 0x00, 0x00, 0x80, 0x0D, 0x03, 0x00, 0x00, 0x3B, 
  0x00, 0x00, 0x80, 0x0D, 0x03, 0x00, 0x00, 0x1B, 0x00, 0x00, 0x80, 0x0D, 
  0x03, 0x00, 0x80, 0x13, 0x00, 0x00, 0x80, 0x0D, 0x03, 0x00, 0x00, 0x3B, 
  0x00, 0x00, 0x80, 0x09, 0x03, 0x00, 0x00, 0x19, 0x00, 0x00, 0xC0, 0x0D, 
  0xDF, 0xDB, 0xDB, 0x1B, 0x00, 0x00, 0x80, 0x1D, 0xFF, 0xFF, 0xFF, 0x13, 
  0x00, 0x00, 0xC0, 0x09, 0x6B, 0xA9, 0xE9, 0x39, 0x00, 0x00, 0x80, 0x0D, 
  0x03, 0x00, 0x00, 0x1B, 0x00, 0x00, 0x80, 0x0D, 0x03, 0x00, 0x80, 0x1B, 
  0x00, 0x00, 0x80, 0x0D, 0x07, 0x00, 0x00, 0x1B, 0x00, 0x00, 0xC0, 0x0D, 
  0xFF, 0xFF, 0xFF, 0xFF, 0xFF, 0xFF, 0xFF, 0x0D, 0xFC, 0xFF, 0xFF, 0xFF, 
  0xFF, 0xFF, 0xFF, 0x08, 0x00, 0x00, 0x07, 0x03, 0x00, 0x00, 0x00, 0x1C, 
  0x00, 0x00, 0xA3, 0xAB, 0x16, 0x1A, 0xA5, 0x5C, 0x00, 0x00, 0xF3, 0xFF, 
  0xFF, 0xFF, 0xFF, 0xFF, 0x00, 0x00, 0xF3, 0x76, 0xDD, 0xD7, 0x6D, 0xFB, 
  0x00, 0x00, 0x33, 0x00, 0x00, 0x00, 0x00, 0xC0, 0x00, 0xC0, 0xFF, 0xFF, 
  0xFF, 0xFF, 0xFF, 0xFF, 0x00, 0xC0, 0xFF, 0xFF, 0xFF, 0xFF, 0xFF, 0x7F, 
  0x00, 0x40, 0xA4, 0x42, 0x11, 0x11, 0x42, 0x04, 0x00, 0x00, 0x00, 0x00, 
  0x00, 0x00, 0x00, 0x00, 0x00, 0x00, 0x00, 0x00, 0x00, 0x00, 0x00, 0x00, 
  0x00, 0x00, 0x00, 0x00, 0x00, 0x00, 0x00, 0x00, 0x00, 0x00, 0x00, 0x00, 
  0x00, 0x00, 0x00, 0x00, 0x00, 0x00, 0x00, 0x00, 0x00, 0x00, 0x00, 0x00, 
  0x00, 0x00, 0x00, 0x00, 0x00, 0x00, 0x00, 0x00, 0x00, 0x00, 0x00, 0x00, 
  0x00, 0x00, 0x00, 0x00, 0x00, 0x00, 0x00, 0x00, 0x00, 0x00, 0x00, 0x00, 
  0x00, 0x00, 0x00, 0x00, 0x00, 0x00, 0x00, 0x00, 0x00, 0x00, 0x00, 0x00, 
  0x00, 0x00, 0x00, 0x00, 0x00, 0x00, 0x00, 0x00, 0x00, 0x00, 0x00, 0x00, 
  0x00, 0x00, 0x00, 0x00, 0x00, 0x00, 0x00, 0x00, };
